<svg xmlns="http://www.w3.org/2000/svg" xmlnsXlink="http://www.w3.org/1999/xlink" width="1500" zoomAndPan="magnify" viewBox="0 0 1125 1124.99995" height="1500" preserveAspectRatio="xMidYMid meet" version="1.0"><defs><clipPath id="1aeeb1f62a"><path d="M 372.523438 232.601562 L 469.359375 232.601562 L 469.359375 329.4375 L 372.523438 329.4375 Z M 372.523438 232.601562 " clipRule="nonzero"/></clipPath><clipPath id="bbd8a6fe37"><path d="M 359.175781 219.257812 L 483 219.257812 L 483 342.84375 L 359.175781 342.84375 Z M 359.175781 219.257812 " clipRule="nonzero"/></clipPath><clipPath id="27e1a7bdd3"><path d="M 12 0 L 1125 0 L 1125 1083 L 12 1083 Z M 12 0 " clipRule="nonzero"/></clipPath><clipPath id="12d473ad69"><path d="M 167.824219 -201.753906 L 1294.292969 102.378906 L 984.367188 1250.304688 L -142.101562 946.171875 Z M 167.824219 -201.753906 " clipRule="nonzero"/></clipPath><clipPath id="d069c2dab0"><path d="M 167.824219 -201.753906 L 1294.292969 102.378906 L 984.367188 1250.304688 L -142.101562 946.171875 Z M 167.824219 -201.753906 " clipRule="nonzero"/></clipPath></defs><g clipPath="url(#1aeeb1f62a)"><path fill="#5ac116" d="M 469.421875 281.050781 C 469.421875 282.636719 469.34375 284.222656 469.1875 285.800781 C 469.03125 287.378906 468.800781 288.949219 468.488281 290.503906 C 468.179688 292.058594 467.796875 293.597656 467.335938 295.117188 C 466.875 296.632812 466.339844 298.125 465.734375 299.59375 C 465.125 301.058594 464.449219 302.492188 463.699219 303.890625 C 462.953125 305.289062 462.136719 306.648438 461.253906 307.96875 C 460.375 309.289062 459.429688 310.5625 458.421875 311.789062 C 457.417969 313.015625 456.351562 314.1875 455.230469 315.308594 C 454.109375 316.433594 452.933594 317.496094 451.707031 318.503906 C 450.480469 319.511719 449.207031 320.453125 447.886719 321.335938 C 446.570312 322.21875 445.210938 323.03125 443.808594 323.78125 C 442.410156 324.527344 440.976562 325.207031 439.511719 325.8125 C 438.046875 326.421875 436.554688 326.953125 435.035156 327.414062 C 433.515625 327.875 431.980469 328.261719 430.421875 328.570312 C 428.867188 328.878906 427.300781 329.113281 425.71875 329.269531 C 424.140625 329.421875 422.558594 329.5 420.972656 329.5 C 419.382812 329.5 417.800781 329.421875 416.222656 329.269531 C 414.644531 329.113281 413.074219 328.878906 411.519531 328.570312 C 409.960938 328.261719 408.425781 327.875 406.90625 327.414062 C 405.386719 326.953125 403.894531 326.421875 402.429688 325.8125 C 400.964844 325.207031 399.53125 324.527344 398.132812 323.78125 C 396.734375 323.03125 395.375 322.21875 394.054688 321.335938 C 392.734375 320.453125 391.460938 319.511719 390.234375 318.503906 C 389.007812 317.496094 387.835938 316.433594 386.710938 315.308594 C 385.589844 314.1875 384.527344 313.015625 383.519531 311.789062 C 382.511719 310.5625 381.570312 309.289062 380.6875 307.96875 C 379.804688 306.648438 378.992188 305.289062 378.242188 303.890625 C 377.496094 302.492188 376.816406 301.058594 376.210938 299.59375 C 375.601562 298.125 375.070312 296.632812 374.609375 295.117188 C 374.148438 293.597656 373.761719 292.058594 373.453125 290.503906 C 373.144531 288.949219 372.910156 287.378906 372.753906 285.800781 C 372.597656 284.222656 372.523438 282.636719 372.523438 281.050781 C 372.523438 279.464844 372.597656 277.882812 372.753906 276.304688 C 372.910156 274.722656 373.144531 273.15625 373.453125 271.601562 C 373.761719 270.042969 374.148438 268.507812 374.609375 266.988281 C 375.070312 265.46875 375.601562 263.976562 376.210938 262.511719 C 376.816406 261.042969 377.496094 259.613281 378.242188 258.210938 C 378.992188 256.8125 379.804688 255.453125 380.6875 254.132812 C 381.570312 252.816406 382.511719 251.542969 383.519531 250.316406 C 384.527344 249.089844 385.589844 247.914062 386.710938 246.792969 C 387.835938 245.671875 389.007812 244.605469 390.234375 243.601562 C 391.460938 242.59375 392.734375 241.648438 394.054688 240.765625 C 395.375 239.886719 396.734375 239.070312 398.132812 238.324219 C 399.53125 237.574219 400.964844 236.898438 402.429688 236.289062 C 403.894531 235.683594 405.386719 235.148438 406.90625 234.6875 C 408.425781 234.226562 409.960938 233.84375 411.519531 233.535156 C 413.074219 233.222656 414.644531 232.992188 416.222656 232.835938 C 417.800781 232.679688 419.382812 232.601562 420.972656 232.601562 C 422.558594 232.601562 424.140625 232.679688 425.71875 232.835938 C 427.300781 232.992188 428.867188 233.222656 430.421875 233.535156 C 431.980469 233.84375 433.515625 234.226562 435.035156 234.6875 C 436.554688 235.148438 438.046875 235.683594 439.511719 236.289062 C 440.976562 236.898438 442.410156 237.574219 443.808594 238.324219 C 445.210938 239.070312 446.570312 239.886719 447.886719 240.765625 C 449.207031 241.648438 450.480469 242.59375 451.707031 243.601562 C 452.933594 244.605469 454.109375 245.671875 455.230469 246.792969 C 456.351562 247.914062 457.417969 249.089844 458.421875 250.316406 C 459.429688 251.542969 460.375 252.816406 461.253906 254.132812 C 462.136719 255.453125 462.953125 256.8125 463.699219 258.210938 C 464.449219 259.613281 465.125 261.042969 465.734375 262.511719 C 466.339844 263.976562 466.875 265.46875 467.335938 266.988281 C 467.796875 268.507812 468.179688 270.042969 468.488281 271.601562 C 468.800781 273.15625 469.03125 274.722656 469.1875 276.304688 C 469.34375 277.882812 469.421875 279.464844 469.421875 281.050781 Z M 469.421875 281.050781 " fillOpacity="1" fillRule="nonzero"/></g><g clipPath="url(#bbd8a6fe37)"><path fill="#0b2032" d="M 420.972656 219.25 C 386.84375 219.25 359.175781 246.929688 359.175781 281.058594 C 359.175781 315.179688 386.84375 342.84375 420.972656 342.84375 C 455.101562 342.84375 482.769531 315.179688 482.769531 281.058594 C 482.769531 246.929688 455.101562 219.25 420.972656 219.25 Z M 420.972656 311.199219 C 404.378906 311.199219 390.914062 297.746094 390.914062 281.152344 C 390.914062 264.558594 404.378906 251.105469 420.972656 251.105469 C 437.566406 251.105469 451.019531 264.558594 451.019531 281.152344 C 451.019531 297.746094 437.566406 311.199219 420.972656 311.199219 Z M 420.972656 311.199219 " fillOpacity="1" fillRule="nonzero"/></g><g clipPath="url(#27e1a7bdd3)"><g clipPath="url(#12d473ad69)"><g clipPath="url(#d069c2dab0)"><path fill="#0b2032" d="M 947.664062 267.804688 C 993.621094 279.0625 1036.925781 296.738281 1078.375 318.738281 C 1017.53125 199.027344 920.074219 110.148438 757.195312 76.984375 C 785.75 62.382812 816.011719 51.6875 847.621094 43.660156 C 459.90625 -122.894531 323.945312 247.777344 117.894531 158.101562 C 119.800781 249.019531 159.625 306.007812 246.707031 321.699219 C 229.628906 330.429688 214.289062 341.238281 200.0625 353.039062 C 281.441406 345.566406 350.421875 372.929688 401.980469 450.339844 C 307.863281 418.949219 226.921875 429.070312 161.121094 487.902344 C 75.796875 429.902344 96.722656 348.140625 186.804688 324.617188 C 26.476562 322.046875 10.230469 519.394531 169.203125 571.285156 C 183.636719 488 289.269531 459.703125 376.144531 492.359375 C 494.371094 536.703125 537.992188 663.953125 429.355469 751.9375 C 459.332031 675.839844 443.753906 592.964844 308.648438 566.839844 C 366.609375 618.832031 331.886719 689.507812 243.085938 687.84375 C 157.242188 686.292969 38.289062 623.351562 34.214844 492.746094 C -69.96875 806.210938 217.097656 1014.140625 467.597656 945.136719 C 430.023438 998.25 370.390625 1024.015625 294.699219 1030.03125 C 459.582031 1108.59375 673.523438 1093.203125 787 910.605469 C 791.0625 975.648438 771.945312 1032.828125 732.765625 1082.515625 C 892.414062 1026.246094 1065.441406 899.980469 1004.277344 622.152344 C 1047.671875 675.273438 1075.234375 736.773438 1091.921875 803.617188 C 1155.503906 615.828125 1142.203125 434.195312 947.664062 267.804688 Z M 759.855469 395.144531 C 1048.636719 534.527344 998.875 856.015625 842.097656 977.46875 C 870.125 870.25 859.808594 773.84375 793.164062 693.511719 C 807.921875 949.839844 588.683594 1035.105469 466.6875 1031.152344 C 694.539062 948.902344 816.902344 683.128906 572.96875 502.027344 C 610.765625 506.019531 647.261719 519.09375 682.78125 538.34375 C 608.175781 437.230469 505.726562 361.726562 346.980469 337.957031 C 372.273438 333.746094 401.273438 341.34375 425.789062 323.8125 C 410.753906 324.121094 395.984375 321.746094 381.710938 315.820312 C 402.941406 315.574219 432.003906 308.46875 442.566406 288.085938 C 439.085938 289.90625 434.976562 290.636719 430.902344 289.539062 C 422.757812 287.339844 417.90625 278.898438 420.105469 270.75 C 422.304688 262.601562 430.746094 257.75 438.890625 259.949219 C 441.679688 260.703125 443.863281 261.984375 445.660156 263.847656 C 444.707031 257.148438 442.15625 249.558594 438.007812 241.078125 C 460.925781 254.167969 466.800781 274.15625 459.054688 299.4375 C 494.136719 270.035156 504.703125 212.160156 545.761719 197.253906 C 474.957031 180.894531 410.339844 199.566406 340.097656 250.988281 C 279.480469 294.890625 219.640625 285.636719 175.578125 222.210938 C 368.730469 220.765625 419.722656 37.859375 681.019531 54.117188 C 649.9375 71.257812 624.617188 94.328125 604.160156 122.386719 C 730.03125 103.464844 835.777344 141.214844 931.210938 208.617188 C 842.035156 189.601562 760.882812 193.683594 687.269531 220.964844 C 960.824219 264.226562 1068.253906 459.3125 1076.238281 642.734375 C 1022.109375 527.136719 906.222656 415.339844 759.855469 395.144531 Z M 759.855469 395.144531 " fillOpacity="1" fillRule="evenodd"/></g></g></g></svg>
